# xmcd CD database file
#
# Track frame offsets:
#	150
#	11560
#	26757
#	37382
#	49970
#	60527
#	69485
#	81832
#	92617
#	103510
#	114442
#	123550
#
# Disc length: 1763 seconds
#
# Revision: 1
# Processed by: cddbd v1.5.2PL0 Copyright (c) Steve Scherf et al.
# Submitted via: CDex 1.70beta3
#
DISCID=a106e10c
DTITLE=Breno Sauer Quarteto - 4 Na Sucesso
DYEAR=1966
DGENRE=Jazz
TTITLE0=Michelle
TTITLE1=Canto De Ossanha
TTITLE2=Ternura (Somehow It Got To Be Tomorrow)
TTITLE3=Io Te Daro Di Piu
TTITLE4=Aline
TTITLE5=Les Marionettes
TTITLE6=Ninguém Poderá Julgar-Me
TTITLE7=Apêlo
TTITLE8=Tema De Lara
TTITLE9=Yesterday
TTITLE10=Ça Serai Beau
TTITLE11=Strangers In The Night
EXTD=YEAR: 1966
EXTT0=
EXTT1=
EXTT2=
EXTT3=
EXTT4=
EXTT5=
EXTT6=
EXTT7=
EXTT8=
EXTT9=
EXTT10=
EXTT11=
PLAYORDER=
